<svg width="21" height="21" viewBox="0 0 21 21" fill="none" xmlns="http://www.w3.org/2000/svg">
<path d="M4.59375 9.84375H17.7188C17.8928 9.84375 18.0597 9.91289 18.1828 10.036C18.3059 10.159 18.375 10.326 18.375 10.5C18.375 10.674 18.3059 10.841 18.1828 10.964C18.0597 11.0871 17.8928 11.1562 17.7188 11.1562H4.59375C4.4197 11.1562 4.25278 11.0871 4.12971 10.964C4.00664 10.841 3.9375 10.674 3.9375 10.5C3.9375 10.326 4.00664 10.159 4.12971 10.036C4.25278 9.91289 4.4197 9.84375 4.59375 9.84375Z" fill="#F7F8FD"/>
<path d="M4.86545 10.5L10.3084 15.9416C10.4316 16.0649 10.5008 16.232 10.5008 16.4063C10.5008 16.5805 10.4316 16.7477 10.3084 16.8709C10.1852 16.9941 10.018 17.0633 9.84376 17.0633C9.6695 17.0633 9.50236 16.9941 9.37914 16.8709L3.47289 10.9646C3.41177 10.9037 3.36329 10.8312 3.3302 10.7515C3.29712 10.6718 3.28009 10.5863 3.28009 10.5C3.28009 10.4137 3.29712 10.3282 3.3302 10.2485C3.36329 10.1688 3.41177 10.0963 3.47289 10.0354L9.37914 4.12913C9.50236 4.0059 9.6695 3.93667 9.84376 3.93667C10.018 3.93667 10.1852 4.0059 10.3084 4.12913C10.4316 4.25235 10.5008 4.41948 10.5008 4.59375C10.5008 4.76802 10.4316 4.93515 10.3084 5.05838L4.86545 10.5Z" fill="#F7F8FD"/>
</svg>
