<svg width="29" height="29" viewBox="0 0 29 29" fill="none" xmlns="http://www.w3.org/2000/svg">
<path d="M14.5341 25.0582L13.0066 23.5873C11.2334 21.8713 9.7674 20.391 8.60865 19.1464C7.4499 17.9018 6.52817 16.7844 5.84346 15.794C5.15875 14.8044 4.6805 13.8947 4.40872 13.065C4.13694 12.2352 4.0007 11.3867 4 10.5192C4 8.74664 4.55304 7.26635 5.65911 6.07834C6.76519 4.89033 8.1434 4.29633 9.79373 4.29633C10.7067 4.29633 11.5757 4.50376 12.4009 4.91862C13.2261 5.33348 13.9371 5.91805 14.5341 6.67234C15.131 5.91805 15.842 5.33348 16.6672 4.91862C17.4924 4.50376 18.3614 4.29633 19.2744 4.29633C20.9247 4.29633 22.3029 4.89033 23.409 6.07834C24.5151 7.26635 25.0681 8.74664 25.0681 10.5192C25.0681 11.3867 24.9319 12.2352 24.6594 13.065C24.3869 13.8947 23.9087 14.8044 23.2247 15.794C22.5399 16.7844 21.6182 17.9018 20.4595 19.1464C19.3007 20.391 17.8347 21.8713 16.0615 23.5873L14.5341 25.0582ZM14.5341 22.0033C16.2195 20.3816 17.6065 18.9907 18.695 17.8306C19.7835 16.6705 20.6438 15.662 21.2759 14.8051C21.9079 13.9467 22.3468 13.1826 22.5926 12.5128C22.8384 11.843 22.9613 11.1785 22.9613 10.5192C22.9613 9.38779 22.6102 8.44492 21.9079 7.69063C21.2056 6.93634 20.3278 6.5592 19.2744 6.5592C18.4492 6.5592 17.6855 6.80887 16.9832 7.30821C16.281 7.80755 15.7981 8.44417 15.5348 9.21807H13.5333C13.27 8.44492 12.7872 7.8083 12.0849 7.30821C11.3826 6.80811 10.6189 6.55844 9.79373 6.5592C8.74033 6.5592 7.86249 6.93634 7.16022 7.69063C6.45795 8.44492 6.10681 9.38779 6.10681 10.5192C6.10681 11.1792 6.22971 11.8441 6.4755 12.5139C6.7213 13.1838 7.16022 13.9475 7.79226 14.8051C8.4243 15.6627 9.28459 16.6716 10.3731 17.8317C11.4616 18.9918 12.8486 20.3823 14.5341 22.0033Z" fill="#94A3B8"/>
</svg>
