<svg width="29" height="29" viewBox="0 0 29 29" fill="none" xmlns="http://www.w3.org/2000/svg">
<path d="M15.0546 2.00645C14.8938 1.88107 14.6957 1.81299 14.4918 1.81299C14.2879 1.81299 14.0899 1.88107 13.9291 2.00645L0.90625 12.161L2.03272 13.5856L3.625 12.344V23.5625C3.62596 24.0429 3.81722 24.5034 4.15693 24.8431C4.49663 25.1828 4.95709 25.3741 5.4375 25.375H23.5625C24.0429 25.3741 24.5034 25.1828 24.8431 24.8431C25.1828 24.5034 25.374 24.0429 25.375 23.5625V12.3522L26.9673 13.5938L28.0938 12.1691L15.0546 2.00645ZM16.3125 23.5625H12.6875V16.3125H16.3125V23.5625ZM18.125 23.5625V16.3125C18.1245 15.832 17.9334 15.3712 17.5936 15.0314C17.2538 14.6916 16.7931 14.5005 16.3125 14.5H12.6875C12.2069 14.5005 11.7462 14.6916 11.4064 15.0314C11.0666 15.3712 10.8755 15.832 10.875 16.3125V23.5625H5.4375V10.9312L14.5 3.87151L23.5625 10.9403V23.5625H18.125Z" fill="#94A3B8"/>
</svg>
