<svg width="22" height="31" viewBox="0 0 22 31" fill="none" xmlns="http://www.w3.org/2000/svg">
<path d="M10.5341 30.1957L9.00662 28.0565C7.23339 25.5607 5.7674 23.4078 4.60865 21.5977C3.4499 19.7876 2.52817 18.1624 1.84346 16.722C1.15875 15.2827 0.6805 13.9597 0.408722 12.7529C0.136943 11.5462 0.000702271 10.3121 0 9.05048C0 6.47246 0.553038 4.31955 1.65911 2.59173C2.76519 0.863909 4.1434 0 5.79373 0C6.70669 0 7.57575 0.301682 8.40091 0.905048C9.22608 1.50841 9.93713 2.35861 10.5341 3.45564C11.131 2.35861 11.842 1.50841 12.6672 0.905048C13.4924 0.301682 14.3614 0 15.2744 0C16.9247 0 18.3029 0.863909 19.409 2.59173C20.5151 4.31955 21.0681 6.47246 21.0681 9.05048C21.0681 10.3121 20.9319 11.5462 20.6594 12.7529C20.3869 13.9597 19.9087 15.2827 19.2247 16.722C18.5399 18.1624 17.6182 19.7876 16.4595 21.5977C15.3007 23.4078 13.8347 25.5607 12.0615 28.0565L10.5341 30.1957ZM10.5341 25.7527C12.2195 23.3941 13.6065 21.3712 14.695 19.684C15.7835 17.9967 16.6438 16.53 17.2759 15.2838C17.9079 14.0354 18.3468 12.9241 18.5926 11.9499C18.8384 10.9758 18.9613 10.0093 18.9613 9.05048C18.9613 7.40493 18.6102 6.03365 17.9079 4.93662C17.2056 3.8396 16.3278 3.29108 15.2744 3.29108C14.4492 3.29108 13.6855 3.6542 12.9832 4.38043C12.281 5.10666 11.7981 6.03255 11.5348 7.1581H9.53332C9.26997 6.03365 8.78716 5.10776 8.08489 4.38043C7.38262 3.6531 6.6189 3.28999 5.79373 3.29108C4.74033 3.29108 3.86249 3.8396 3.16022 4.93662C2.45795 6.03365 2.10681 7.40493 2.10681 9.05048C2.10681 10.0104 2.22971 10.9774 2.4755 11.9516C2.7213 12.9257 3.16022 14.0365 3.79226 15.2838C4.4243 16.5311 5.28459 17.9984 6.37311 19.6856C7.46163 21.3728 8.84861 23.3952 10.5341 25.7527Z" fill="#F7F8FD"/>
</svg>
