<svg width="11" height="14" viewBox="0 0 11 14" fill="none" xmlns="http://www.w3.org/2000/svg">
<path d="M5.50001 14L1.28201 9.0255C1.2234 8.95081 1.16539 8.87564 1.10801 8.8C0.387496 7.85089 -0.00174059 6.69161 5.85144e-06 5.5C5.85144e-06 4.04131 0.579469 2.64236 1.61092 1.61091C2.64237 0.579463 4.04132 0 5.50001 0C6.9587 0 8.35764 0.579463 9.38909 1.61091C10.4205 2.64236 11 4.04131 11 5.5C11.0018 6.69107 10.6127 7.84982 9.89251 8.7985L9.89201 8.8C9.89201 8.8 9.74201 8.997 9.71951 9.0235L5.50001 14ZM1.90601 8.1975C1.90701 8.1975 2.02301 8.3515 2.04951 8.3845L5.50001 12.454L8.95501 8.379C8.97701 8.3515 9.09401 8.1965 9.09451 8.196C9.68308 7.42056 10.0012 6.47352 10 5.5C10 4.30653 9.5259 3.16193 8.68199 2.31802C7.83807 1.47411 6.69348 1 5.50001 1C4.30653 1 3.16194 1.47411 2.31803 2.31802C1.47411 3.16193 1.00001 4.30653 1.00001 5.5C0.998957 6.47412 1.31689 7.42171 1.90601 8.1975Z" fill="#64748B"/>
<circle cx="5.5" cy="5.5" r="2.0" fill="none" stroke="#64748B" stroke-width="1.0"/>
</svg>
