<svg width="29" height="29" viewBox="0 0 29 29" fill="none" xmlns="http://www.w3.org/2000/svg">
<path d="M14.6667 4.83331C15.9485 4.83331 17.1779 5.34254 18.0844 6.24896C18.9908 7.15539 19.5 8.38477 19.5 9.66665C19.5 10.9485 18.9908 12.1779 18.0844 13.0843C17.1779 13.9908 15.9485 14.5 14.6667 14.5C13.3848 14.5 12.1554 13.9908 11.249 13.0843C10.3426 12.1779 9.83333 10.9485 9.83333 9.66665C9.83333 8.38477 10.3426 7.15539 11.249 6.24896C12.1554 5.34254 13.3848 4.83331 14.6667 4.83331ZM14.6667 7.24998C14.0257 7.24998 13.411 7.50459 12.9578 7.95781C12.5046 8.41102 12.25 9.02571 12.25 9.66665C12.25 10.3076 12.5046 10.9223 12.9578 11.3755C13.411 11.8287 14.0257 12.0833 14.6667 12.0833C15.3076 12.0833 15.9223 11.8287 16.3755 11.3755C16.8287 10.9223 17.0833 10.3076 17.0833 9.66665C17.0833 9.02571 16.8287 8.41102 16.3755 7.95781C15.9223 7.50459 15.3076 7.24998 14.6667 7.24998ZM14.6667 15.7083C17.8929 15.7083 24.3333 17.3154 24.3333 20.5416V24.1666H5V20.5416C5 17.3154 11.4404 15.7083 14.6667 15.7083ZM14.6667 18.0041C11.0779 18.0041 7.29583 19.7683 7.29583 20.5416V21.8708H22.0375V20.5416C22.0375 19.7683 18.2554 18.0041 14.6667 18.0041Z" fill="#94A3B8"/>
</svg>
