<svg width="29" height="29" viewBox="0 0 29 29" fill="none" xmlns="http://www.w3.org/2000/svg">
<path d="M25.001 11.8356C25.3987 11.7523 25.7563 11.5301 26.0131 11.2067C26.27 10.8832 26.4105 10.4783 26.4107 10.0605V7.25C26.4107 6.7693 26.2252 6.30828 25.895 5.96837C25.5648 5.62846 25.1169 5.4375 24.65 5.4375H3.5214C3.05443 5.4375 2.60658 5.62846 2.27639 5.96837C1.94619 6.30828 1.76068 6.7693 1.76068 7.25V10.0605C1.76091 10.4783 1.90134 10.8832 2.15822 11.2067C2.41509 11.5301 2.77264 11.7523 3.17036 11.8356C3.76504 11.9626 4.29905 12.2966 4.68244 12.7815C5.06582 13.2664 5.27514 13.8725 5.27514 14.4977C5.27514 15.1229 5.06582 15.729 4.68244 16.2139C4.29905 16.6988 3.76504 17.0329 3.17036 17.1598C2.7719 17.2433 2.41378 17.4661 2.15682 17.7906C1.89986 18.115 1.75989 18.5209 1.76068 18.9395V21.75C1.76068 22.2307 1.94619 22.6917 2.27639 23.0316C2.60658 23.3715 3.05443 23.5625 3.5214 23.5625H24.65C25.1169 23.5625 25.5648 23.3715 25.895 23.0316C26.2252 22.6917 26.4107 22.2307 26.4107 21.75V18.9395C26.4105 18.5217 26.27 18.1168 26.0131 17.7933C25.7563 17.4699 25.3987 17.2477 25.001 17.1644C24.4063 17.0374 23.8723 16.7034 23.4889 16.2185C23.1055 15.7336 22.8962 15.1275 22.8962 14.5023C22.8962 13.8771 23.1055 13.271 23.4889 12.7861C23.8723 12.3012 24.4063 11.9671 25.001 11.8402V11.8356ZM3.5214 18.9406C4.51586 18.7321 5.40978 18.1762 6.05181 17.3671C6.69383 16.558 7.04453 15.5453 7.04453 14.5006C7.04453 13.4558 6.69383 12.4432 6.05181 11.6341C5.40978 10.8249 4.51586 10.2691 3.5214 10.0605V7.25H9.6839V21.75H3.5214V18.9406ZM24.65 18.9406V21.75H11.4446V7.25H24.65V10.0594C23.6555 10.2679 22.7616 10.8238 22.1196 11.6329C21.4775 12.442 21.1268 13.4547 21.1268 14.4994C21.1268 15.5442 21.4775 16.5568 22.1196 17.3659C22.7616 18.1751 23.6555 18.7309 24.65 18.9395V18.9406Z" fill="#94A3B8"/>
</svg>
